<svg xmlns="http://www.w3.org/2000/svg" viewBox="0 0 1440 320"><path fill="#ffffff" fill-opacity="1" d="M0,128L34.3,154.7C68.6,181,137,235,206,224C274.3,213,343,139,411,122.7C480,107,549,149,617,144C685.7,139,754,85,823,74.7C891.4,64,960,96,1029,128C1097.1,160,1166,192,1234,192C1302.9,192,1371,160,1406,144L1440,128L1440,320L1405.7,320C1371.4,320,1303,320,1234,320C1165.7,320,1097,320,1029,320C960,320,891,320,823,320C754.3,320,686,320,617,320C548.6,320,480,320,411,320C342.9,320,274,320,206,320C137.1,320,69,320,34,320L0,320Z"></path></svg>